<?xml version="1.0" encoding="UTF-8"?>
<svg width="64" height="64" viewBox="0 0 64 64" xmlns="http://www.w3.org/2000/svg">
  <defs>
    <radialGradient id="earthGradient" cx="0.3" cy="0.3" r="0.7">
      <stop offset="0%" style="stop-color:#87CEEB;stop-opacity:1" />
      <stop offset="70%" style="stop-color:#4682B4;stop-opacity:1" />
      <stop offset="100%" style="stop-color:#191970;stop-opacity:1" />
    </radialGradient>
    <radialGradient id="atmosphereGradient" cx="0.5" cy="0.5" r="0.6">
      <stop offset="0%" style="stop-color:#87CEEB;stop-opacity:0" />
      <stop offset="70%" style="stop-color:#87CEEB;stop-opacity:0.3" />
      <stop offset="100%" style="stop-color:#4169E1;stop-opacity:0.6" />
    </radialGradient>
  </defs>
  
  <!-- Atmosphere glow -->
  <circle cx="32" cy="32" r="31" fill="url(#atmosphereGradient)" />
  
  <!-- Ocean base -->
  <circle cx="32" cy="32" r="28" fill="url(#earthGradient)" />
  
  <!-- Continents -->
  <!-- North America -->
  <path d="M12 20 Q18 16 24 20 Q26 24 22 28 Q16 32 12 28 Q8 24 12 20" fill="#228B22" opacity="0.9"/>
  
  <!-- South America -->
  <path d="M18 36 Q22 34 24 38 Q26 44 22 48 Q18 50 16 46 Q14 40 18 36" fill="#32CD32" opacity="0.9"/>
  
  <!-- Europe -->
  <path d="M28 18 Q34 16 38 20 Q40 24 36 26 Q32 28 28 24 Q26 22 28 18" fill="#228B22" opacity="0.9"/>
  
  <!-- Africa -->
  <path d="M30 28 Q36 26 40 30 Q42 38 38 44 Q34 48 30 44 Q26 36 30 28" fill="#32CD32" opacity="0.9"/>
  
  <!-- Asia -->
  <path d="M40 18 Q48 16 54 22 Q56 28 52 32 Q46 34 40 30 Q38 24 40 18" fill="#228B22" opacity="0.9"/>
  
  <!-- Australia -->
  <path d="M46 40 Q52 38 54 42 Q56 46 52 48 Q48 50 46 46 Q44 42 46 40" fill="#32CD32" opacity="0.8"/>
  
  <!-- Cloud patterns -->
  <ellipse cx="20" cy="15" rx="8" ry="3" fill="white" opacity="0.4"/>
  <ellipse cx="45" cy="25" rx="6" ry="2" fill="white" opacity="0.3"/>
  <ellipse cx="15" cy="45" rx="7" ry="2.5" fill="white" opacity="0.4"/>
  
  <!-- Highlight -->
  <ellipse cx="24" cy="22" rx="4" ry="6" fill="white" opacity="0.2"/>
</svg> 